<svg version="1.1" xmlns="http://www.w3.org/2000/svg" xmlns:xlink="http://www.w3.org/1999/xlink" width="13" height="21"><defs/><g><path fill="rgb(255,255,255)" stroke="none" paint-order="stroke fill markers" fill-rule="evenodd" d=" M 1.0057144165039062 3.058225989341736 C 1.0057144165039062 2.607799768447876 1.232574462890625 2.2894652485847473 1.6833953857421875 2.1035001277923584 C 2.1371536254882812 1.9207748174667358 2.540863037109375 1.9939945340156555 2.8971176147460938 2.3261213898658752 C 2.8971176147460938 2.3261213898658752 10.681617736816406 9.736956417560577 10.681617736816406 9.736956417560577 C 10.905464172363281 9.948377192020416 11.011627197265625 10.201452672481537 10.999916076660156 10.497293651103973 C 10.999916076660156 10.781563878059387 10.8936767578125 11.026678681373596 10.681617736816406 11.229398250579834 C 10.681617736816406 11.229398250579834 2.8971176147460938 18.66846591234207 2.8971176147460938 18.66846591234207 C 2.540863037109375 19.008923709392548 2.1371536254882812 19.082235991954803 1.6833953857421875 18.890716910362244 C 1.232574462890625 18.705029487609863 1.0057144165039062 18.378456592559814 1.0057144165039062 17.910998225212097 C 1.0057144165039062 17.910998225212097 1.0057144165039062 3.058225989341736 1.0057144165039062 3.058225989341736 C 1.0057144165039062 3.058225989341736 1.0057144165039062 3.058225989341736 1.0057144165039062 3.058225989341736 Z"/></g></svg>