<svg version="1.1" xmlns="http://www.w3.org/2000/svg" xmlns:xlink="http://www.w3.org/1999/xlink" width="22" height="38"><defs/><g><path fill="rgb(245,244,242)" stroke="none" paint-order="stroke fill markers" fill-rule="evenodd" d=" M 1.010955810546875 4.116417407989502 C 1.010955810546875 3.2157500982284546 1.4420166015625 2.5790810585021973 2.2984542846679688 2.2071508169174194 C 3.1606521606445312 1.8416076302528381 3.9275970458984375 1.9880470633506775 4.604667663574219 2.652300775051117 C 4.604667663574219 2.652300775051117 19.395050048828125 17.474063396453857 19.395050048828125 17.474063396453857 C 19.820388793945312 17.896719813346863 20.02222442626953 18.403055906295776 19.999832153320312 18.994645297527313 C 19.999832153320312 19.563278317451477 19.798072814941406 20.05341535806656 19.395050048828125 20.4587619304657 C 19.395050048828125 20.4587619304657 4.604667663574219 35.337082386016846 4.604667663574219 35.337082386016846 C 3.9275970458984375 36.018090546131134 3.1606521606445312 36.16452997922897 2.2984542846679688 35.78158438205719 C 1.4420166015625 35.410302102565765 1.010955810546875 34.756971180438995 1.010955810546875 33.8221470117569 C 1.010955810546875 33.8221470117569 1.010955810546875 4.116417407989502 1.010955810546875 4.116417407989502 C 1.010955810546875 4.116417407989502 1.010955810546875 4.116417407989502 1.010955810546875 4.116417407989502 Z"/></g></svg>