<svg version="1.1" xmlns="http://www.w3.org/2000/svg" xmlns:xlink="http://www.w3.org/1999/xlink" width="27" height="25"><defs/><g><path fill="rgb(185,148,3)" stroke="none" paint-order="stroke fill markers" fill-rule="evenodd" d=" M 1.9999008178710938 23.999792098999023 C 1.9999008178710938 23.999792098999023 6.0518341064453125 17.999755680561066 6.0518341064453125 17.999755680561066 C 6.0518341064453125 17.999755680561066 11.137855529785156 17.999755680561066 11.137855529785156 17.999755680561066 C 11.137855529785156 17.999755680561066 16.924331665039062 17.999755680561066 16.924331665039062 17.999755680561066 C 16.924331665039062 17.999755680561066 22.010353088378906 17.999755680561066 22.010353088378906 17.999755680561066 C 22.010353088378906 17.999755680561066 25.999954223632812 23.999792098999023 25.999954223632812 23.999792098999023 C 25.999954223632812 23.999792098999023 1.9999008178710938 23.999792098999023 1.9999008178710938 23.999792098999023 Z M 14.031150817871094 16.99985760450363 C 10.725982666015625 16.99985760450363 8.046653747558594 13.31360125541687 8.046653747558594 9.999830543994904 C 8.046653747558594 9.999830543994904 8.046653747558594 7.999756693840027 8.046653747558594 7.999756693840027 C 8.046653747558594 4.6860785484313965 10.725982666015625 1.9998128414154053 14.031150817871094 1.9998128414154053 C 17.336204528808594 1.9998128414154053 20.015533447265625 4.6860785484313965 20.015533447265625 7.999756693840027 C 20.015533447265625 7.999756693840027 20.015533447265625 9.999830543994904 20.015533447265625 9.999830543994904 C 20.015533447265625 13.31360125541687 17.336204528808594 16.99985760450363 14.031150817871094 16.99985760450363 Z"/></g></svg>