<svg version="1.1" xmlns="http://www.w3.org/2000/svg" xmlns:xlink="http://www.w3.org/1999/xlink" width="25" height="26"><defs/><g><path fill="rgb(185,148,3)" stroke="none" paint-order="stroke fill markers" fill-rule="evenodd" d=" M 18.16205596923828 3.827519416809082 C 17.05571746826172 4.931646823883057 17.05571746826172 6.72187352180481 18.16205596923828 7.826000928878784 C 19.268470764160156 8.930035769939423 21.062179565429688 8.930035769939423 22.16851806640625 7.826000928878784 C 22.16851806640625 7.826000928878784 23.78949737548828 6.208317279815674 23.78949737548828 6.208317279815674 C 23.913055419921875 6.672628402709961 23.999916076660156 7.151287257671356 23.999916076660156 7.654383540153503 C 23.999916076660156 10.7773756980896 21.46314239501953 13.309056162834167 18.333946228027344 13.309056162834167 C 17.823348999023438 13.309056162834167 17.337966918945312 13.22000765800476 16.867385864257812 13.093562483787537 C 16.851516723632812 13.110131800174713 16.846939086914062 13.132440209388733 16.830612182617188 13.1487318277359 C 16.830612182617188 13.1487318277359 6.8144378662109375 23.144750475883484 6.8144378662109375 23.144750475883484 C 5.708099365234375 24.248970448970795 3.9143142700195312 24.248970448970795 2.8079757690429688 23.144750475883484 C 1.7016372680664062 22.040715634822845 1.7016372680664062 20.25058150291443 2.8079757690429688 19.146454095840454 C 2.8079757690429688 19.146454095840454 12.824111938476562 9.150342881679535 12.824111938476562 9.150342881679535 C 12.841239929199219 9.133403301239014 12.864585876464844 9.128682434558868 12.881980895996094 9.112020552158356 C 12.756362915039062 8.64428448677063 12.667900085449219 8.161830425262451 12.667900085449219 7.654383540153503 C 12.667900085449219 4.531483948230743 15.204673767089844 1.9998960494995117 18.333946228027344 1.9998960494995117 C 18.838096618652344 1.9998960494995117 19.31775665283203 2.0865378379821777 19.783035278320312 2.2098357677459717 C 19.783035278320312 2.2098357677459717 18.16205596923828 3.827519416809082 18.16205596923828 3.827519416809082 Z M 4.8771820068359375 20.37730437517166 C 4.48602294921875 20.37730437517166 4.1689453125 20.693787574768066 4.1689453125 21.084138453006744 C 4.1689453125 21.47458189725876 4.48602294921875 21.79087996482849 4.8771820068359375 21.79087996482849 C 5.268379211425781 21.79087996482849 5.585456848144531 21.47458189725876 5.585456848144531 21.084138453006744 C 5.585456848144531 20.693787574768066 5.268379211425781 20.37730437517166 4.8771820068359375 20.37730437517166 Z"/></g></svg>