<svg version="1.1" xmlns="http://www.w3.org/2000/svg" xmlns:xlink="http://www.w3.org/1999/xlink" width="31" height="24"><defs/><g><path fill="rgb(185,148,3)" stroke="none" paint-order="stroke fill markers" fill-rule="evenodd" d=" M 29.692481994628906 22.18290638923645 C 29.692481994628906 22.18290638923645 20.036643981933594 12.527160406112671 20.036643981933594 12.527160406112671 C 20.036643981933594 12.527160406112671 27.182411193847656 5.381341874599457 27.182411193847656 5.381341874599457 C 27.182411193847656 5.381341874599457 29.71453094482422 2.849198579788208 29.71453094482422 2.849198579788208 C 29.8795166015625 3.116251528263092 29.99994659423828 3.412925601005554 29.99994659423828 3.749773323535919 C 29.99994659423828 3.749773323535919 29.99994659423828 21.249748408794403 29.99994659423828 21.249748408794403 C 29.99994659423828 21.60085129737854 29.87047576904297 21.908910989761353 29.692481994628906 22.18290638923645 Z M 26.563743591308594 4.7625380754470825 C 26.563743591308594 4.7625380754470825 23.30450439453125 8.021879971027374 23.30450439453125 8.021879971027374 C 23.30450439453125 8.021879971027374 17.06743621826172 14.258977949619293 17.06743621826172 14.258977949619293 C 17.06743621826172 14.258977949619293 15.972579956054688 15.353756189346313 15.972579956054688 15.353756189346313 C 15.972579956054688 15.353756189346313 5.4361572265625 4.817244589328766 5.4361572265625 4.817244589328766 C 5.4361572265625 4.817244589328766 3.6860885620117188 3.067284107208252 3.6860885620117188 3.067284107208252 C 3.6860885620117188 3.067284107208252 2.8820648193359375 2.263163149356842 2.8820648193359375 2.263163149356842 C 3.1416168212890625 2.110799491405487 3.42718505859375 1.9998128414154053 3.749908447265625 1.9998128414154053 C 3.749908447265625 1.9998128414154053 28.249954223632812 1.9998128414154053 28.249954223632812 1.9998128414154053 C 28.558486938476562 1.9998128414154053 28.833412170410156 2.101080060005188 29.085182189941406 2.241225004196167 C 29.085182189941406 2.241225004196167 28.204330444335938 3.1219906210899353 28.204330444335938 3.1219906210899353 C 28.204330444335938 3.1219906210899353 26.563743591308594 4.7625380754470825 26.563743591308594 4.7625380754470825 Z M 3.0674209594726562 3.68599534034729 C 3.0674209594726562 3.68599534034729 11.881240844726562 12.499760866165161 11.881240844726562 12.499760866165161 C 11.881240844726562 12.499760866165161 2.2632827758789062 22.11773991584778 2.2632827758789062 22.11773991584778 C 2.1109619140625 21.85809224843979 1.9999542236328125 21.57252609729767 1.9999542236328125 21.249748408794403 C 1.9999542236328125 21.249748408794403 1.9999542236328125 3.749773323535919 1.9999542236328125 3.749773323535919 C 1.9999542236328125 3.427180767059326 2.1109619140625 3.1415220499038696 2.2632827758789062 2.8820595145225525 C 2.2632827758789062 2.8820595145225525 3.0674209594726562 3.68599534034729 3.0674209594726562 3.68599534034729 C 3.0674209594726562 3.68599534034729 3.0674209594726562 3.68599534034729 3.0674209594726562 3.68599534034729 Z M 12.499946594238281 13.118564665317535 C 12.499946594238281 13.118564665317535 12.86932373046875 13.4879030585289 12.86932373046875 13.4879030585289 C 12.86932373046875 13.4879030585289 13.001235961914062 13.619809627532959 13.001235961914062 13.619809627532959 C 13.001235961914062 13.619809627532959 14.204353332519531 14.822982668876648 14.204353332519531 14.822982668876648 C 14.204353332519531 14.822982668876648 15.954345703125 16.572943150997162 15.954345703125 16.572943150997162 C 15.954345703125 16.572943150997162 16.02728271484375 16.50000113248825 16.02728271484375 16.50000113248825 C 16.02728271484375 16.50000113248825 16.045555114746094 16.51823663711548 16.045555114746094 16.51823663711548 C 16.045555114746094 16.51823663711548 17.686141967773438 14.877689182758331 17.686141967773438 14.877689182758331 C 17.686141967773438 14.877689182758331 19.417938232421875 13.145779073238373 19.417938232421875 13.145779073238373 C 19.417938232421875 13.145779073238373 29.052452087402344 22.780420005321503 29.052452087402344 22.780420005321503 C 28.80907440185547 22.908809065818787 28.544296264648438 22.99989402294159 28.249954223632812 22.99989402294159 C 28.249954223632812 22.99989402294159 3.749908447265625 22.99989402294159 3.749908447265625 22.99989402294159 C 3.42718505859375 22.99989402294159 3.1416168212890625 22.888722240924835 2.8820648193359375 22.736451148986816 C 2.8820648193359375 22.736451148986816 12.499946594238281 13.118564665317535 12.499946594238281 13.118564665317535 Z"/></g></svg>