<svg version="1.1" xmlns="http://www.w3.org/2000/svg" xmlns:xlink="http://www.w3.org/1999/xlink" width="92" height="64"><defs/><g><path fill="rgb(245,197,6)" stroke="none" paint-order="stroke fill markers" fill-rule="evenodd" d=" M 68.74999237060547 62.99983072280884 C 68.74999237060547 62.99983072280884 21.468727111816406 62.99983072280884 21.468727111816406 62.99983072280884 C 10.716392517089844 62.99983072280884 1.9999618530273438 54.31010365486145 1.9999618530273438 43.59068161249161 C 1.9999618530273438 34.78645038604736 7.917625427246094 27.43698662519455 15.976325988769531 25.061372458934784 C 15.961448669433594 24.764790952205658 15.906173706054688 24.48302000761032 15.906173706054688 24.181532502174377 C 15.906173706054688 16.524934709072113 22.132217407226562 10.31801325082779 29.812423706054688 10.31801325082779 C 31.350357055664062 10.31801325082779 32.80345153808594 10.626258075237274 34.186431884765625 11.086033463478088 C 38.2371826171875 5.6016823053359985 44.706756591796875 1.9998461604118347 52.062408447265625 1.9998461604118347 C 62.63892364501953 1.9998461604118347 71.45075988769531 9.373932480812073 73.7120361328125 19.234619617462158 C 83.6031265258789 21.489064872264862 90.99993896484375 30.273949801921844 90.99993896484375 40.81795924901962 C 90.99993896484375 53.06870085000992 81.03827667236328 62.99983072280884 68.74999237060547 62.99983072280884 Z M 52.062408447265625 40.81795924901962 C 52.062408447265625 40.81795924901962 52.062408447265625 24.181532502174377 52.062408447265625 24.181532502174377 C 52.062408447265625 24.181532502174377 40.937416076660156 24.181532502174377 40.937416076660156 24.181532502174377 C 40.937416076660156 24.181532502174377 40.937416076660156 40.81795924901962 40.937416076660156 40.81795924901962 C 40.937416076660156 40.81795924901962 32.41984558105469 40.81795924901962 32.41984558105469 40.81795924901962 C 32.41984558105469 40.81795924901962 46.49993133544922 54.854947209358215 46.49993133544922 54.854947209358215 C 46.49993133544922 54.854947209358215 60.579978942871094 40.81795924901962 60.579978942871094 40.81795924901962 C 60.579978942871094 40.81795924901962 52.062408447265625 40.81795924901962 52.062408447265625 40.81795924901962 Z"/></g></svg>