<svg version="1.1" xmlns="http://www.w3.org/2000/svg" xmlns:xlink="http://www.w3.org/1999/xlink" width="71" height="72"><defs/><g><path fill="rgb(245,197,6)" stroke="none" paint-order="stroke fill markers" fill-rule="evenodd" d=" M 51.72498321533203 44.23618185520172 C 51.72498321533203 44.23618185520172 51.72498321533203 64.30893671512604 51.72498321533203 64.30893671512604 C 51.72498321533203 64.30893671512604 42.87816619873047 52.94099718332291 42.87816619873047 52.94099718332291 C 42.87816619873047 52.94099718332291 24.52497100830078 70.99979329109192 24.52497100830078 70.99979329109192 C 24.52497100830078 70.99979329109192 1.9999847412109375 1.9997910261154175 1.9999847412109375 1.9997910261154175 C 1.9999847412109375 1.9997910261154175 69.99993896484375 26.254400670528412 69.99993896484375 26.254400670528412 C 69.99993896484375 26.254400670528412 51.72498321533203 44.23618185520172 51.72498321533203 44.23618185520172 Z M 8.374954223632812 8.551335752010345 C 8.374954223632812 8.551335752010345 47.049957275390625 48.83615732192993 47.049957275390625 48.83615732192993 C 47.049957275390625 48.83615732192993 51.58330535888672 44.37558627128601 51.58330535888672 44.37558627128601 C 51.58330535888672 44.37558627128601 8.374954223632812 8.551335752010345 8.374954223632812 8.551335752010345 Z"/></g></svg>