<svg version="1.1" xmlns="http://www.w3.org/2000/svg" xmlns:xlink="http://www.w3.org/1999/xlink" width="34" height="35"><defs/><g><path fill="rgb(245,197,6)" stroke="none" paint-order="stroke fill markers" fill-rule="evenodd" d=" M 1.9970245361328125 22.540466904640198 C 1.9970245361328125 22.540466904640198 6.8474884033203125 17.500062346458435 6.8474884033203125 17.500062346458435 C 6.8474884033203125 17.500062346458435 1.9970245361328125 12.459380090236664 1.9970245361328125 12.459380090236664 C 1.9970245361328125 12.459380090236664 6.111442565917969 12.459380090236664 6.111442565917969 12.459380090236664 C 6.111442565917969 12.459380090236664 10.962249755859375 17.500062346458435 10.962249755859375 17.500062346458435 C 10.962249755859375 17.500062346458435 6.111442565917969 22.540466904640198 6.111442565917969 22.540466904640198 C 6.111442565917969 22.540466904640198 1.9970245361328125 22.540466904640198 1.9970245361328125 22.540466904640198 Z M 8.241416931152344 22.540466904640198 C 8.241416931152344 22.540466904640198 13.0919189453125 17.500062346458435 13.0919189453125 17.500062346458435 C 13.0919189453125 17.500062346458435 8.241416931152344 12.459380090236664 8.241416931152344 12.459380090236664 C 8.241416931152344 12.459380090236664 12.355873107910156 12.459380090236664 12.355873107910156 12.459380090236664 C 12.355873107910156 12.459380090236664 17.206642150878906 17.500062346458435 17.206642150878906 17.500062346458435 C 17.206642150878906 17.500062346458435 12.355873107910156 22.540466904640198 12.355873107910156 22.540466904640198 C 12.355873107910156 22.540466904640198 8.241416931152344 22.540466904640198 8.241416931152344 22.540466904640198 Z M 32.78125 22.540466904640198 C 32.78125 22.540466904640198 27.9307861328125 17.500062346458435 27.9307861328125 17.500062346458435 C 27.9307861328125 17.500062346458435 32.78125 12.459380090236664 32.78125 12.459380090236664 C 32.78125 12.459380090236664 28.6668701171875 12.459380090236664 28.6668701171875 12.459380090236664 C 28.6668701171875 12.459380090236664 23.816024780273438 17.500062346458435 23.816024780273438 17.500062346458435 C 23.816024780273438 17.500062346458435 28.6668701171875 22.540466904640198 28.6668701171875 22.540466904640198 C 28.6668701171875 22.540466904640198 32.78125 22.540466904640198 32.78125 22.540466904640198 Z M 26.53685760498047 22.540466904640198 C 26.53685760498047 22.540466904640198 21.686355590820312 17.500062346458435 21.686355590820312 17.500062346458435 C 21.686355590820312 17.500062346458435 26.53685760498047 12.459380090236664 26.53685760498047 12.459380090236664 C 26.53685760498047 12.459380090236664 22.422439575195312 12.459380090236664 22.422439575195312 12.459380090236664 C 22.422439575195312 12.459380090236664 17.571632385253906 17.500062346458435 17.571632385253906 17.500062346458435 C 17.571632385253906 17.500062346458435 22.422439575195312 22.540466904640198 22.422439575195312 22.540466904640198 C 22.422439575195312 22.540466904640198 26.53685760498047 22.540466904640198 26.53685760498047 22.540466904640198 Z M 12.384597778320312 1.9969213008880615 C 12.384597778320312 1.9969213008880615 17.388946533203125 6.882370352745056 17.388946533203125 6.882370352745056 C 17.388946533203125 6.882370352745056 22.3936767578125 1.9969213008880615 22.3936767578125 1.9969213008880615 C 22.3936767578125 1.9969213008880615 22.3936767578125 6.141009151935577 22.3936767578125 6.141009151935577 C 22.3936767578125 6.141009151935577 17.388946533203125 11.02673590183258 17.388946533203125 11.02673590183258 C 17.388946533203125 11.02673590183258 12.384597778320312 6.141009151935577 12.384597778320312 6.141009151935577 C 12.384597778320312 6.141009151935577 12.384597778320312 1.9969213008880615 12.384597778320312 1.9969213008880615 Z M 12.384597778320312 8.286319077014923 C 12.384597778320312 8.286319077014923 17.388946533203125 13.171768128871918 17.388946533203125 13.171768128871918 C 17.388946533203125 13.171768128871918 22.3936767578125 8.286319077014923 22.3936767578125 8.286319077014923 C 22.3936767578125 8.286319077014923 22.3936767578125 12.430314362049103 22.3936767578125 12.430314362049103 C 22.3936767578125 12.430314362049103 17.388946533203125 17.316133677959442 17.388946533203125 17.316133677959442 C 17.388946533203125 17.316133677959442 12.384597778320312 12.430314362049103 12.384597778320312 12.430314362049103 C 12.384597778320312 12.430314362049103 12.384597778320312 8.286319077014923 12.384597778320312 8.286319077014923 Z M 12.384597778320312 33.002833127975464 C 12.384597778320312 33.002833127975464 17.388946533203125 28.117476642131805 17.388946533203125 28.117476642131805 C 17.388946533203125 28.117476642131805 22.3936767578125 33.002833127975464 22.3936767578125 33.002833127975464 C 22.3936767578125 33.002833127975464 22.3936767578125 28.858837842941284 22.3936767578125 28.858837842941284 C 22.3936767578125 28.858837842941284 17.388946533203125 23.97311109304428 17.388946533203125 23.97311109304428 C 17.388946533203125 23.97311109304428 12.384597778320312 28.858837842941284 12.384597778320312 28.858837842941284 C 12.384597778320312 28.858837842941284 12.384597778320312 33.002833127975464 12.384597778320312 33.002833127975464 Z M 12.384597778320312 26.713435351848602 C 12.384597778320312 26.713435351848602 17.388946533203125 21.828078866004944 17.388946533203125 21.828078866004944 C 17.388946533203125 21.828078866004944 22.3936767578125 26.713435351848602 22.3936767578125 26.713435351848602 C 22.3936767578125 26.713435351848602 22.3936767578125 22.569440066814423 22.3936767578125 22.569440066814423 C 22.3936767578125 22.569440066814423 17.388946533203125 17.68371331691742 17.388946533203125 17.68371331691742 C 17.388946533203125 17.68371331691742 12.384597778320312 22.569440066814423 12.384597778320312 22.569440066814423 C 12.384597778320312 22.569440066814423 12.384597778320312 26.713435351848602 12.384597778320312 26.713435351848602 Z"/></g></svg>