<svg version="1.1" xmlns="http://www.w3.org/2000/svg" xmlns:xlink="http://www.w3.org/1999/xlink" width="32" height="33"><defs/><g><path fill="rgb(245,197,6)" stroke="none" paint-order="stroke fill markers" fill-rule="evenodd" d=" M 1.8060836791992188 9.323882162570953 C 1.8060836791992188 9.323882162570953 8.770347595214844 9.057477176189423 8.770347595214844 9.057477176189423 C 8.770347595214844 9.057477176189423 8.723731994628906 2.0380112528800964 8.723731994628906 2.0380112528800964 C 8.723731994628906 2.0380112528800964 11.697288513183594 4.902096271514893 11.697288513183594 4.902096271514893 C 11.697288513183594 4.902096271514893 11.744171142578125 11.921839892864227 11.744171142578125 11.921839892864227 C 11.744171142578125 11.921839892864227 4.7796783447265625 12.18796718120575 4.7796783447265625 12.18796718120575 C 4.7796783447265625 12.18796718120575 1.8060836791992188 9.323882162570953 1.8060836791992188 9.323882162570953 Z M 6.319099426269531 13.670689582824707 C 6.319099426269531 13.670689582824707 13.2833251953125 13.404284596443176 13.2833251953125 13.404284596443176 C 13.2833251953125 13.404284596443176 13.236709594726562 6.38481867313385 13.236709594726562 6.38481867313385 C 13.236709594726562 6.38481867313385 16.21026611328125 9.248903691768646 16.21026611328125 9.248903691768646 C 16.21026611328125 9.248903691768646 16.257110595703125 16.26864731311798 16.257110595703125 16.26864731311798 C 16.257110595703125 16.26864731311798 9.292655944824219 16.534774601459503 9.292655944824219 16.534774601459503 C 9.292655944824219 16.534774601459503 6.319099426269531 13.670689582824707 6.319099426269531 13.670689582824707 Z M 24.054580688476562 30.75319194793701 C 24.054580688476562 30.75319194793701 24.007736206054688 23.733911156654358 24.007736206054688 23.733911156654358 C 24.007736206054688 23.733911156654358 30.972190856933594 23.467321038246155 30.972190856933594 23.467321038246155 C 30.972190856933594 23.467321038246155 27.998634338378906 20.60323601961136 27.998634338378906 20.60323601961136 C 27.998634338378906 20.60323601961136 21.033912658691406 20.869548439979553 21.033912658691406 20.869548439979553 C 21.033912658691406 20.869548439979553 21.08098602294922 27.889106929302216 21.08098602294922 27.889106929302216 C 21.08098602294922 27.889106929302216 24.054580688476562 30.75319194793701 24.054580688476562 30.75319194793701 Z M 19.54156494140625 26.406291961669922 C 19.54156494140625 26.406291961669922 19.49475860595703 19.387103736400604 19.49475860595703 19.387103736400604 C 19.49475860595703 19.387103736400604 26.459213256835938 19.1205136179924 26.459213256835938 19.1205136179924 C 26.459213256835938 19.1205136179924 23.48565673828125 16.256428599357605 23.48565673828125 16.256428599357605 C 23.48565673828125 16.256428599357605 16.52093505859375 16.5227410197258 16.52093505859375 16.5227410197258 C 16.52093505859375 16.5227410197258 16.568008422851562 23.542299509048462 16.568008422851562 23.542299509048462 C 16.568008422851562 23.542299509048462 19.54156494140625 26.406291961669922 19.54156494140625 26.406291961669922 Z M 23.410316467285156 1.707550585269928 C 23.410316467285156 1.707550585269928 23.674713134765625 8.721925377845764 23.674713134765625 8.721925377845764 C 23.674713134765625 8.721925377845764 30.644088745117188 8.67499440908432 30.644088745117188 8.67499440908432 C 30.644088745117188 8.67499440908432 27.800498962402344 11.669967770576477 27.800498962402344 11.669967770576477 C 27.800498962402344 11.669967770576477 20.830856323242188 11.71717643737793 20.830856323242188 11.71717643737793 C 20.830856323242188 11.71717643737793 20.566726684570312 4.702523946762085 20.566726684570312 4.702523946762085 C 20.566726684570312 4.702523946762085 23.410316467285156 1.707550585269928 23.410316467285156 1.707550585269928 Z M 19.094558715820312 6.253004670143127 C 19.094558715820312 6.253004670143127 19.358993530273438 13.267379462718964 19.358993530273438 13.267379462718964 C 19.358993530273438 13.267379462718964 26.328369140625 13.22044849395752 26.328369140625 13.22044849395752 C 26.328369140625 13.22044849395752 23.4847412109375 16.215421855449677 23.4847412109375 16.215421855449677 C 23.4847412109375 16.215421855449677 16.51513671875 16.26263052225113 16.51513671875 16.26263052225113 C 16.51513671875 16.26263052225113 16.250930786132812 9.247978031635284 16.250930786132812 9.247978031635284 C 16.250930786132812 9.247978031635284 19.094558715820312 6.253004670143127 19.094558715820312 6.253004670143127 Z M 2.134185791015625 24.116208791732788 C 2.134185791015625 24.116208791732788 9.103294372558594 24.069000124931335 9.103294372558594 24.069000124931335 C 9.103294372558594 24.069000124931335 9.367958068847656 31.08365261554718 9.367958068847656 31.08365261554718 C 9.367958068847656 31.08365261554718 12.211585998535156 28.088679254055023 12.211585998535156 28.088679254055023 C 12.211585998535156 28.088679254055023 11.947151184082031 21.073841631412506 11.947151184082031 21.073841631412506 C 11.947151184082031 21.073841631412506 4.977813720703125 21.12123543024063 4.977813720703125 21.12123543024063 C 4.977813720703125 21.12123543024063 2.134185791015625 24.116208791732788 2.134185791015625 24.116208791732788 Z M 6.449943542480469 19.57075470685959 C 6.449943542480469 19.57075470685959 13.419013977050781 19.523546040058136 13.419013977050781 19.523546040058136 C 13.419013977050781 19.523546040058136 13.683677673339844 26.53819853067398 13.683677673339844 26.53819853067398 C 13.683677673339844 26.53819853067398 16.52734375 23.543225169181824 16.52734375 23.543225169181824 C 16.52734375 23.543225169181824 16.26287078857422 16.52829498052597 16.26287078857422 16.52829498052597 C 16.26287078857422 16.52829498052597 9.293533325195312 16.57578134536743 9.293533325195312 16.57578134536743 C 9.293533325195312 16.57578134536743 6.449943542480469 19.57075470685959 6.449943542480469 19.57075470685959 Z"/></g></svg>