<svg version="1.1" xmlns="http://www.w3.org/2000/svg" xmlns:xlink="http://www.w3.org/1999/xlink" width="20" height="34"><defs/><g><path fill="rgb(245,244,242)" stroke="none" paint-order="stroke fill markers" fill-rule="evenodd" d=" M 1.5920639038085938 3.4045464992523193 C 1.5920639038085938 2.58441162109375 1.9845199584960938 2.004948377609253 2.7642822265625 1.6662493348121643 C 3.5492324829101562 1.3333819508552551 4.2475128173828125 1.4667695760726929 4.863929748535156 2.0715033411979675 C 4.863929748535156 2.0715033411979675 18.329849243164062 15.5659618973732 18.329849243164062 15.5659618973732 C 18.717117309570312 15.950758814811707 18.900833129882812 16.41173756122589 18.880462646484375 16.95047175884247 C 18.880462646484375 17.46800833940506 18.69670867919922 17.914361655712128 18.329849243164062 18.283422350883484 C 18.329849243164062 18.283422350883484 4.863929748535156 31.829255044460297 4.863929748535156 31.829255044460297 C 4.2475128173828125 32.44935476779938 3.5492324829101562 32.58264982700348 2.7642822265625 32.23404622077942 C 1.9845199584960938 31.895902574062347 1.5920639038085938 31.301073372364044 1.5920639038085938 30.450114011764526 C 1.5920639038085938 30.450114011764526 1.5920639038085938 3.4045464992523193 1.5920639038085938 3.4045464992523193 C 1.5920639038085938 3.4045464992523193 1.5920639038085938 3.4045464992523193 1.5920639038085938 3.4045464992523193 Z"/></g></svg>